<?xml version="1.0" encoding="utf-8"?>
<!-- Generator: Adobe Illustrator 26.0.2, SVG Export Plug-In . SVG Version: 6.00 Build 0)  -->
<svg version="1.1" id="Layer_1" xmlns="http://www.w3.org/2000/svg" xmlns:xlink="http://www.w3.org/1999/xlink" x="0px" y="0px"
	 viewBox="0 0 1920 1080" style="enable-background:new 0 0 1920 1080;" xml:space="preserve">
<style type="text/css">
	.st0{fill:#F18940;}
	.st1{fill:#382454;}
	.st2{fill:#687049;}
	.st3{fill:#EFC700;}
	.st4{fill:#EDEDED;}
	.st5{fill-rule:evenodd;clip-rule:evenodd;fill:#F18940;}
	.st6{fill-rule:evenodd;clip-rule:evenodd;fill:#382454;}
	.st7{fill-rule:evenodd;clip-rule:evenodd;fill:#687049;}
	.st8{fill-rule:evenodd;clip-rule:evenodd;}
	.st9{fill:#FFFFFF;}
	.st10{font-family:'Helvetica-Light';}
	.st11{font-size:23.3136px;}
	.st12{font-family:'Glonto-Regular';}
	.st13{font-size:148.6181px;}
	.st14{fill-rule:evenodd;clip-rule:evenodd;fill:none;}
	.st15{font-size:23px;}
	.st16{letter-spacing:3;}
	.st17{letter-spacing:1;}
	.st18{letter-spacing:4;}
</style>
<g>
	<g>
		<polygon class="st0" points="152.31,109.56 130.01,109.56 130.01,266.3 228.47,266.3 228.47,245.93 152.31,245.93 152.31,109.56 
					"/>
		<path class="st0" d="M323.84,203.38c0,28.44-16.34,46.13-38.85,46.13c-22.52,0-29.58-17.69-29.58-46.13v-63.14H235.1v63.14
			c0,39.86,14.57,64.94,49.89,64.94c21.85,0,33.34-10.08,38.41-23.29h0.44v21.27h20.31V140.24h-20.31V203.38L323.84,203.38z"/>
		<polygon class="st0" points="464.47,159.04 464.69,159.04 464.69,140.24 359.17,140.24 359.17,159.04 437.1,159.04 357.4,247.72 
			357.4,266.3 466.46,266.3 466.46,247.72 384.78,247.72 464.47,159.04 		"/>
		<path class="st0" d="M530.04,249.51c-22.52,0-37.09-17.69-37.09-46.13c0-28.44,14.57-46.13,37.09-46.13
			c22.52,0,40.84,17.69,40.84,46.13C570.88,231.82,552.56,249.51,530.04,249.51L530.04,249.51z M570.66,161.51
			c-5.08-13.21-18.76-23.06-40.62-23.06c-35.32,0-59.17,25.08-59.17,64.94c0,39.86,23.84,64.94,59.17,64.94
			c21.85,0,35.54-10.08,40.62-23.29h0.22v21.27h20.09V140.24h-20.09v21.27H570.66L570.66,161.51z"/>
		<path class="st0" d="M624.97,161.51h-0.66v-21.27h-20.09V266.3h20.09v-62.92c0-28.44,20.09-46.13,42.61-46.13v-18.81
			C645.28,138.44,630.05,148.29,624.97,161.51L624.97,161.51z"/>
		<path class="st0" d="M728.29,249.51c-22.52,0-37.09-17.69-37.09-46.13c0-28.44,14.57-46.13,37.09-46.13
			c22.52,0,40.62,17.69,40.62,46.13C768.91,231.82,750.81,249.51,728.29,249.51L728.29,249.51z M768.47,161.51
			c-5.08-13.21-18.54-23.06-40.18-23.06c-35.32,0-59.16,25.08-59.16,64.94c0,39.86,23.84,64.94,59.16,64.94
			c21.64,0,35.1-10.08,40.18-23.29h0.44v21.27h20.31V92.76h-20.31v68.75H768.47L768.47,161.51z"/>
		<path class="st0" d="M863.4,138.44c-35.32,0-60.93,25.08-60.93,64.94c0,39.86,25.61,64.94,60.93,64.94
			c35.32,0,60.93-25.08,60.93-64.94C924.33,163.52,898.72,138.44,863.4,138.44L863.4,138.44z M863.4,249.51
			c-22.52,0-38.86-17.69-38.86-46.13c0-28.44,16.34-46.13,38.86-46.13c22.52,0,38.85,17.69,38.85,46.13
			C902.25,231.82,885.92,249.51,863.4,249.51L863.4,249.51z"/>
	</g>
	<rect x="1037.33" y="50.5" class="st0" width="770" height="393.64"/>
	<rect x="1037.33" y="462.07" class="st1" width="770" height="176.46"/>
	<rect x="1037.33" y="651.05" class="st2" width="572.35" height="176.46"/>
	<rect x="1633.36" y="651.05" class="st3" width="173.97" height="176.46"/>
	<rect x="1037.33" y="844.04" class="st4" width="377.24" height="176.46"/>
	<rect x="1430.57" y="844.04" width="376.76" height="176.46"/>
	<g>
		<polygon class="st1" points="135.26,303.86 130.31,303.86 130.31,338.59 152.13,338.59 152.13,334.07 135.26,334.07 
			135.26,303.86 		"/>
		<path class="st1" d="M173.27,324.65c0,6.3-3.62,10.22-8.61,10.22c-4.99,0-6.56-3.92-6.56-10.22v-13.99h-4.5v13.99
			c0,8.83,3.23,14.39,11.06,14.39c4.84,0,7.39-2.23,8.51-5.16h0.1v4.71h4.5v-27.94h-4.5V324.65L173.27,324.65z"/>
		<polygon class="st1" points="204.43,314.82 204.48,314.82 204.48,310.65 181.09,310.65 181.09,314.82 198.36,314.82 180.7,334.47 
			180.7,338.59 204.87,338.59 204.87,334.47 186.77,334.47 204.43,314.82 		"/>
		<path class="st1" d="M218.96,334.87c-4.99,0-8.22-3.92-8.22-10.22c0-6.3,3.23-10.22,8.22-10.22c4.99,0,9.05,3.92,9.05,10.22
			C228.01,330.95,223.95,334.87,218.96,334.87L218.96,334.87z M227.96,315.37c-1.12-2.93-4.16-5.11-9-5.11
			c-7.83,0-13.11,5.56-13.11,14.39c0,8.83,5.28,14.39,13.11,14.39c4.84,0,7.88-2.23,9-5.16h0.05v4.71h4.45v-27.94h-4.45v4.71H227.96
			L227.96,315.37z"/>
		<path class="st1" d="M239.99,315.37h-0.15v-4.71h-4.45v27.94h4.45v-13.94c0-6.3,4.45-10.22,9.44-10.22v-4.17
			C244.5,310.26,241.12,312.44,239.99,315.37L239.99,315.37z"/>
		<path class="st1" d="M262.89,334.87c-4.99,0-8.22-3.92-8.22-10.22c0-6.3,3.23-10.22,8.22-10.22c4.99,0,9,3.92,9,10.22
			C271.89,330.95,267.88,334.87,262.89,334.87L262.89,334.87z M271.79,315.37c-1.12-2.93-4.11-5.11-8.9-5.11
			c-7.83,0-13.11,5.56-13.11,14.39c0,8.83,5.28,14.39,13.11,14.39c4.79,0,7.78-2.23,8.9-5.16h0.1v4.71h4.5v-38.46h-4.5v15.23H271.79
			L271.79,315.37z"/>
		<path class="st1" d="M292.83,310.26c-7.83,0-13.5,5.56-13.5,14.39c0,8.83,5.67,14.39,13.5,14.39c7.83,0,13.5-5.56,13.5-14.39
			C306.33,315.81,300.66,310.26,292.83,310.26L292.83,310.26z M292.83,334.87c-4.99,0-8.61-3.92-8.61-10.22
			c0-6.3,3.62-10.22,8.61-10.22c4.99,0,8.61,3.92,8.61,10.22C301.44,330.95,297.82,334.87,292.83,334.87L292.83,334.87z"/>
	</g>
	<g>
		<polygon class="st2" points="441.33,303.86 436.39,303.86 436.39,338.59 458.21,338.59 458.21,334.07 441.33,334.07 
			441.33,303.86 		"/>
		<path class="st2" d="M479.34,324.65c0,6.3-3.62,10.22-8.61,10.22c-4.99,0-6.56-3.92-6.56-10.22v-13.99h-4.5v13.99
			c0,8.83,3.23,14.39,11.06,14.39c4.84,0,7.39-2.23,8.51-5.16h0.1v4.71h4.5v-27.94h-4.5V324.65L479.34,324.65z"/>
		<polygon class="st2" points="510.51,314.82 510.55,314.82 510.55,310.65 487.17,310.65 487.17,314.82 504.44,314.82 
			486.78,334.47 486.78,338.59 510.95,338.59 510.95,334.47 492.85,334.47 510.51,314.82 		"/>
		<path class="st2" d="M525.04,334.87c-4.99,0-8.22-3.92-8.22-10.22c0-6.3,3.23-10.22,8.22-10.22c4.99,0,9.05,3.92,9.05,10.22
			C534.09,330.95,530.03,334.87,525.04,334.87L525.04,334.87z M534.04,315.37c-1.12-2.93-4.16-5.11-9-5.11
			c-7.83,0-13.11,5.56-13.11,14.39c0,8.83,5.28,14.39,13.11,14.39c4.84,0,7.88-2.23,9-5.16h0.05v4.71h4.45v-27.94h-4.45v4.71H534.04
			L534.04,315.37z"/>
		<path class="st2" d="M546.07,315.37h-0.15v-4.71h-4.45v27.94h4.45v-13.94c0-6.3,4.45-10.22,9.44-10.22v-4.17
			C550.57,310.26,547.2,312.44,546.07,315.37L546.07,315.37z"/>
		<path class="st2" d="M568.97,334.87c-4.99,0-8.22-3.92-8.22-10.22c0-6.3,3.23-10.22,8.22-10.22c4.99,0,9,3.92,9,10.22
			C577.97,330.95,573.96,334.87,568.97,334.87L568.97,334.87z M577.87,315.37c-1.12-2.93-4.11-5.11-8.9-5.11
			c-7.83,0-13.11,5.56-13.11,14.39c0,8.83,5.28,14.39,13.11,14.39c4.79,0,7.78-2.23,8.9-5.16h0.1v4.71h4.5v-38.46h-4.5v15.23H577.87
			L577.87,315.37z"/>
		<path class="st2" d="M598.91,310.26c-7.83,0-13.5,5.56-13.5,14.39c0,8.83,5.67,14.39,13.5,14.39c7.83,0,13.5-5.56,13.5-14.39
			C612.41,315.81,606.73,310.26,598.91,310.26L598.91,310.26z M598.91,334.87c-4.99,0-8.61-3.92-8.61-10.22
			c0-6.3,3.62-10.22,8.61-10.22c4.99,0,8.61,3.92,8.61,10.22C607.52,330.95,603.9,334.87,598.91,334.87L598.91,334.87z"/>
	</g>
	<g>
		<polygon class="st3" points="747.41,303.86 742.47,303.86 742.47,338.59 764.29,338.59 764.29,334.07 747.41,334.07 
			747.41,303.86 		"/>
		<path class="st3" d="M785.42,324.65c0,6.3-3.62,10.22-8.61,10.22c-4.99,0-6.56-3.92-6.56-10.22v-13.99h-4.5v13.99
			c0,8.83,3.23,14.39,11.06,14.39c4.84,0,7.39-2.23,8.51-5.16h0.1v4.71h4.5v-27.94h-4.5V324.65L785.42,324.65z"/>
		<polygon class="st3" points="816.58,314.82 816.63,314.82 816.63,310.65 793.25,310.65 793.25,314.82 810.52,314.82 
			792.86,334.47 792.86,338.59 817.02,338.59 817.02,334.47 798.92,334.47 816.58,314.82 		"/>
		<path class="st3" d="M831.11,334.87c-4.99,0-8.22-3.92-8.22-10.22c0-6.3,3.23-10.22,8.22-10.22c4.99,0,9.05,3.92,9.05,10.22
			C840.16,330.95,836.1,334.87,831.11,334.87L831.11,334.87z M840.11,315.37c-1.12-2.93-4.16-5.11-9-5.11
			c-7.83,0-13.11,5.56-13.11,14.39c0,8.83,5.28,14.39,13.11,14.39c4.84,0,7.88-2.23,9-5.16h0.05v4.71h4.45v-27.94h-4.45v4.71H840.11
			L840.11,315.37z"/>
		<path class="st3" d="M852.15,315.37H852v-4.71h-4.45v27.94H852v-13.94c0-6.3,4.45-10.22,9.44-10.22v-4.17
			C856.65,310.26,853.27,312.44,852.15,315.37L852.15,315.37z"/>
		<path class="st3" d="M875.04,334.87c-4.99,0-8.22-3.92-8.22-10.22c0-6.3,3.23-10.22,8.22-10.22c4.99,0,9,3.92,9,10.22
			C884.04,330.95,880.03,334.87,875.04,334.87L875.04,334.87z M883.95,315.37c-1.12-2.93-4.11-5.11-8.9-5.11
			c-7.83,0-13.11,5.56-13.11,14.39c0,8.83,5.28,14.39,13.11,14.39c4.79,0,7.78-2.23,8.9-5.16h0.1v4.71h4.5v-38.46h-4.5v15.23H883.95
			L883.95,315.37z"/>
		<path class="st3" d="M904.98,310.26c-7.83,0-13.5,5.56-13.5,14.39c0,8.83,5.67,14.39,13.5,14.39s13.5-5.56,13.5-14.39
			C918.48,315.81,912.81,310.26,904.98,310.26L904.98,310.26z M904.98,334.87c-4.99,0-8.61-3.92-8.61-10.22
			c0-6.3,3.62-10.22,8.61-10.22s8.61,3.92,8.61,10.22C913.59,330.95,909.97,334.87,904.98,334.87L904.98,334.87z"/>
	</g>
	<path class="st5" d="M359.75,569.93c-4.14,24.86-13.37,39.23-18.91,47.69c-5.05,7.71-16.31,20.75-30.61,31.03
		c-23.64,16.99-41.99,22.45-54.77,29.57c-0.11,0.06-1.2,0.67-1.46,0.67c-0.93-0.01-0.86-1.32-0.86-1.46
		c0.22-4.54,3.31-26.64,3.71-28.69c1.25-6.42,1.21-6.41,2.34-12.39c0.55-2.91,4.03-21.4,8.57-36.03c0.79-2.53,1.86-6.44,1.9-6.57
		c0.14-0.53,3.74-11.34,4.07-12.33c1-3.01,2.92-8.51,2.94-8.61c0.49-1.73,3.57-9.85,3.89-10.7c1.33-3.51,1.66-3.57,3.31-3.69
		c15.14-1.14,21.56-7.81,23.94-9.63c1.87-1.44,3.61-5.16,0.86-8.34c-9.73-11.27-14.23-12.08-13.64-14.87
		c0.91-4.31,3.21-3.64,6.51-6.26c25.29-20.1,21.04-48.87-1.87-72.13c-0.88-0.89-1.34-0.86-0.93-2.06c0.17-0.49,0.31-0.4,5.78-2.79
		c16.65-7.26,29.55-10.85,42.59-13.34c0.11-0.02,2.97-0.65,3.54-0.3c0.9,0.56-0.07,2.34-0.81,9.96c-2.57,26.31,6.06,54.75,9.89,83
		C362.18,539.8,362.12,554.25,359.75,569.93L359.75,569.93z"/>
	<path class="st5" d="M274.63,527.89c5.68,0.35,10.04,0.39,17.26,4.95c0.38,0.24,5.28,2.9,11.27,9.64c1.33,1.5-0.05,2.21-1.32,3.21
		c-7.05,5.53-15.83,7.65-22.95,7.05c-11.47-0.97-13.42-5.28-13.86-1.48c-0.94,8.17,2.1,16.98-5.54,27.94
		c-6.65,9.54-10.2,15.85-10.82,26.12c-0.43,7.11,5.77,13.73-2.15,22.65c-1.29,1.45-7.32,9.28-26.64,8.44
		c-7.25-0.32-14.65-2.41-18.39-5.27c-0.45-0.34-2.79-2.13-4.79-5.12c-5.26-7.85,0.02-13.06-0.65-20.75
		c-1.38-16.03-12.48-24.45-15.28-32.43c-3.21-9.15-0.9-15.87-1.84-21.69c-0.45-2.8-1.54-1.91-3.09-1.29
		c-2.38,0.95-14.33,6.5-29.77-1.1c-1.68-0.83-6.35-3.77-6.74-4.66c-0.43-0.98,0.06-1.41,3.49-4.71c1.57-1.51,9.17-8.98,20.23-10.98
		c0.95-0.17,3.97-0.05,4.18-0.32c0.11-0.14-0.02-0.98-0.19-1.11c-0.62-0.49-1.38,0.14-9.17-3.57c-3.43-1.63-14.52-6.18-22.74-16.09
		c-7.33-8.83-9.2-20.53-6.77-29.63c4.83-18.14,18.12-28.52,23.22-34.73c0.33-0.4,0.38-0.32,0.73-0.71c0.09-0.1,0.05-0.32,0.17-0.37
		c0.21-0.09,0.96,0.3,0.97,0.45c0.06,0.5-1.39,2.34-2.73,5.66c-10.48,25.84-7.06,37.64,2.9,45.68c3.56,2.87,9.95,6.05,17.16,7.88
		c5.59,1.42,14.44,2.92,16.47,2.39c1.56-0.41,10.16-5.44,23.39-5.76c0.57-0.01,3.95-0.1,7.11,0.32c1.55,0.21,1.55,1.2,1.56,2.22
		c0.01,3.21,0.01,3.61-1.42,4.57c-4.9,3.29-3.13,8.89-0.12,10.53c1.93,1.05,1.55,1.61,1.62,5.09c0.1,4.61-0.24,4.91,1.64,6.77
		c0.26,0.26,2.45,2.42,3.24,3.2c4.45,4.37,4.45,4.88,5.62,4.64c0.39-0.08,1.37-1.03,0.46-2.17c-0.5-0.63-0.74-0.4-7.1-7.2
		c-1.45-1.55-1.21-2.34-1.14-6.67c0.01-0.57-0.18-1.87,0.55-2.95c0.26-0.38,4.62-2.18,3.56-7.13c-0.88-4.11-3.8-3.75-4.12-5.8
		c-0.04-0.23-0.17-3.57,0.08-4.25c0.45-1.18,3.46-1.11,8.37-1.15c5.15-0.04,5.42,0.69,5.58,1.13c0.03,0.08,0.11,0.08,0.14,12.22
		c0,1.9,0.05,22.51-0.15,23.78c-0.26,1.62-0.76,1.37-9.05,10.19c-2.2,2.35-2.34,2.4-2.35,4.26c-0.01,3.98-0.1,49.41-0.03,49.8
		c0.22,1.23,2.54,2.32,2.59-0.74c0.07-3.82,0.12-34.52,0.12-37.52c0.02-10.18-0.7-11.43,1.19-13.54c0.71-0.79,9.42-9.64,9.76-10.27
		c0.66-1.24,0.5-1.32,0.55-21.63c0.03-9.5,0.05-9.49,0.06-12.26c0.01-1.87-0.26-4.13,0.79-4.41c1.15-0.31,7.71,1.25,13.39,4.01
		c0.1,0.05,0.17,0.12,0.27,0.17c0.16,0.08,1.57,0.76,2.05,0.85c0.23,0.04,0.46,0,0.69,0.04c8.22-1.6,33.84-3.66,38.87-22.36
		c0.62-2.29,3.06-11.38-3.66-29.38c-2.87-7.68-4.16-7.95-3.78-8.73c0.37-0.75,0.63-0.55,1.26-0.01c0.43,0.37,0.24,0.55,4.84,5.18
		c21.92,22.1,19.83,37.47,19.2,42.37c-1.44,11.14-10.24,19.33-10.45,19.55c-3.23,3.25-9.37,8.21-14.91,10.92
		c-7.31,3.58-8.52,4.01-10.84,4.71c-1.43,0.43-1.28,0.73-1.45,0.91C275.03,527.59,274.8,527.7,274.63,527.89L274.63,527.89z
		 M241,614.67c0-0.13,0.3-2.34-0.59-2.72c-0.26-0.11-0.6-0.26-3.44,0.71c-0.46,0.16-3.08,1.06-4.86,3.58
		c-0.99,1.41-1.62,3.68-1.57,4.21c0.17,1.76,5.28,1.52,7.2,0.18C240.68,618.56,240.78,616.01,241,614.67L241,614.67z M203.97,613.97
		c0.04,0.28,0.1,2.56,1.47,4.45c2.4,3.29,5.04,3.25,7.31,3.34c0.91,0.03,1.03,0.27,1.64-0.41c0.85-0.96-1.09-4.94-2.61-6.4
		c-2.25-2.17-6.78-3.15-6.86-3.14c-0.09,0-0.71,0.03-0.91,0.61C203.97,612.54,204.01,612.53,203.97,613.97L203.97,613.97z
		 M249.46,541.11c-0.02,3.16,0.25,3.44-1.95,5.69c-7.07,7.25-7.11,7.2-14.19,14.46c-1.96,2.01-3.17,3.06-2.75,4.34
		c0.43,1.34,1.87,0.03,1.99-0.08c0.17-0.15,14.67-14.62,15.38-15.39c0.52-0.56,0.5-0.57,1.03-1.13c3.02-3.16,3.08-3.28,3.1-5.01
		c0.12-7.18-0.09-17.19,0.28-18.13c0.36-0.9,3.29-1.56,4.03-4.89c1.26-5.64-5.8-10.08-9.86-5.4c-2.86,3.29-1.2,7.55,1.07,8.9
		c1.53,0.91,1.8,0.99,1.81,3.65L249.46,541.11L249.46,541.11z M217.17,546.72c-5.06-4.96-11.15-11.24-12.11-12.23
		c-1.93-1.99-1.91-2.16-1.79-4.94c0.08-1.84,0.68-1.91,1.44-2.46c3.77-2.73,3.04-7.09,1.44-8.91c-4.27-4.88-11.32-0.7-10.04,4.95
		c0.83,3.64,4.08,3.91,4.39,5.73c0.41,2.43-0.94,3.5,1.38,5.94c0.31,0.33,15,15.44,16.46,16.57c0.81,0.63,1.47-0.05,1.56-0.14
		C221.04,550.07,218.79,548.3,217.17,546.72L217.17,546.72z M206.66,600.25c0.08,0.46-0.09,0.95-0.02,1.41
		c0.03,0.17,0.27,1.66,1.89,0.84c1.09-0.55,0.82-3.2,0.84-20.28c0.01-7.54-0.19-7.54-0.35-7.85c-0.79-1.56-5.35-5.23-11.04-11.07
		c-2.16-2.22-0.31-3.29-1.68-5.55c-2.82-4.65-9.2-2.18-8.36,2.82c0.49,2.9,3.34,4.24,5.57,4.01c1.29-0.13,1.63-0.52,4.81,2.7
		c7.5,7.6,8.07,7.33,8.29,9.14C206.75,577.63,206.67,583.29,206.66,600.25L206.66,600.25z"/>
	<path class="st5" d="M290.06,469.01c0.58,5.19,1.59,14.02-7.03,20.73c-8.77,6.83-26.2,8.86-27.55,8.52
		c-2.97-0.76-4.15-2.72-15-4.74c-0.14-0.02-1.42-0.26-1.12-1.33c0.01-0.05,5.49-6.94,5.64-7.11c14.16-16.73,30.59-27.09,33.79-29.23
		c0.76-0.51,4.53-2.82,4.93-3.06c1.6-0.98,1.95,0.73,2.91,3.25C288.96,462.18,289.89,467.95,290.06,469.01L290.06,469.01z"/>
	<path class="st5" d="M250.15,640.58c-2.71,12.25-5.85,32.37-5.92,39.04c0,0.12-0.01,1.34-0.06,1.49c-0.18,0.62-1.03,0.66-1.29,0.36
		c-0.29-0.35-0.13-0.46-3.29-4.63c-6.44-8.49-14.27-20.98-17.31-26.97c-3.27-6.45-3.35-6.46-3.25-7.08
		c0.12-0.74,1.39-0.72,1.53-0.71c2.1,0.04,14.99,0.66,24.38-5.44c6.6-4.29,6.04-6.74,6.91-6.82c1.06-0.1,0.75,1.33,0.72,1.45
		c-0.08,0.36-0.19,0.32-1.31,4.36C251.04,636.41,250.23,640.18,250.15,640.58L250.15,640.58z"/>
	<path class="st5" d="M270.15,562.02c0.06-3.07-0.05-4.28,0.49-4.69c0.84-0.62,5.14,0.54,5.53,0.9c0.76,0.7,0.55,0.93-1.02,4.43
		c-2.25,5-2.31,4.97-4.32,10.08c-0.54,1.38-0.52,1.38-0.57,1.5c-3.76,9.47-4.62,9.55-11.79,33.28c-1.63,5.4-1.66,6.83-1.82,7.01
		c-0.12,0.14-1.01,0.21-1.17,0.08c-0.13-0.11-0.4-2.01-0.43-2.19c-0.55-3.94-3.76-11.98,7.35-27.41
		C270.39,573.91,270,566.22,270.15,562.02L270.15,562.02z"/>
	<path class="st6" d="M646.81,572.41c-4.14,24.86-13.37,39.23-18.91,47.69c-5.05,7.71-16.31,20.75-30.61,31.03
		c-23.64,16.99-41.99,22.45-54.77,29.57c-0.11,0.06-1.2,0.67-1.46,0.67c-0.93-0.01-0.86-1.32-0.86-1.46
		c0.22-4.54,3.31-26.64,3.71-28.69c1.25-6.42,1.21-6.41,2.34-12.39c0.55-2.91,4.03-21.4,8.57-36.03c0.79-2.53,1.86-6.44,1.9-6.57
		c0.14-0.53,3.74-11.34,4.07-12.33c1-3.01,2.92-8.51,2.94-8.61c0.49-1.73,3.57-9.85,3.89-10.7c1.33-3.51,1.66-3.57,3.31-3.69
		c15.14-1.14,21.56-7.81,23.94-9.63c1.87-1.44,3.61-5.16,0.86-8.34c-9.73-11.27-14.23-12.08-13.64-14.87
		c0.91-4.31,3.21-3.64,6.51-6.26c25.29-20.1,21.04-48.87-1.87-72.13c-0.88-0.89-1.34-0.86-0.93-2.06c0.17-0.49,0.31-0.4,5.78-2.79
		c16.65-7.26,29.55-10.85,42.59-13.34c0.11-0.02,2.97-0.65,3.54-0.3c0.9,0.56-0.07,2.34-0.81,9.96c-2.57,26.31,6.06,54.75,9.89,83
		C649.23,542.27,649.17,556.72,646.81,572.41L646.81,572.41z"/>
	<path class="st6" d="M561.68,530.36c5.68,0.35,10.04,0.39,17.26,4.95c0.38,0.24,5.28,2.9,11.27,9.64c1.33,1.5-0.05,2.21-1.32,3.21
		c-7.05,5.53-15.83,7.65-22.95,7.05c-11.47-0.97-13.42-5.28-13.86-1.48c-0.94,8.17,2.1,16.98-5.54,27.94
		c-6.65,9.54-10.2,15.85-10.82,26.12c-0.43,7.11,5.77,13.73-2.15,22.65c-1.29,1.45-7.32,9.28-26.64,8.44
		c-7.25-0.32-14.65-2.41-18.39-5.27c-0.45-0.34-2.79-2.13-4.79-5.12c-5.26-7.85,0.02-13.06-0.65-20.75
		c-1.38-16.03-12.48-24.45-15.28-32.43c-3.21-9.15-0.9-15.87-1.84-21.69c-0.45-2.8-1.54-1.91-3.09-1.29
		c-2.38,0.95-14.33,6.5-29.77-1.1c-1.68-0.83-6.35-3.77-6.74-4.66c-0.43-0.98,0.06-1.41,3.49-4.71c1.57-1.51,9.17-8.98,20.23-10.98
		c0.95-0.17,3.97-0.05,4.18-0.32c0.11-0.14-0.02-0.98-0.19-1.11c-0.62-0.49-1.38,0.14-9.17-3.57c-3.43-1.63-14.52-6.18-22.74-16.09
		c-7.33-8.83-9.2-20.53-6.77-29.63c4.83-18.14,18.12-28.52,23.22-34.73c0.33-0.4,0.38-0.32,0.73-0.71c0.09-0.1,0.05-0.32,0.17-0.37
		c0.21-0.09,0.96,0.3,0.97,0.45c0.06,0.5-1.39,2.34-2.73,5.66c-10.48,25.84-7.06,37.64,2.9,45.68c3.56,2.87,9.95,6.05,17.16,7.88
		c5.59,1.42,14.44,2.92,16.47,2.39c1.56-0.41,10.16-5.44,23.39-5.76c0.57-0.01,3.95-0.1,7.11,0.32c1.55,0.21,1.55,1.2,1.56,2.22
		c0.01,3.21,0.01,3.61-1.42,4.57c-4.9,3.29-3.13,8.89-0.12,10.53c1.93,1.05,1.55,1.61,1.62,5.09c0.1,4.61-0.24,4.91,1.64,6.77
		c0.26,0.26,2.45,2.42,3.24,3.2c4.45,4.37,4.45,4.88,5.62,4.64c0.39-0.08,1.37-1.03,0.46-2.17c-0.5-0.63-0.74-0.4-7.1-7.2
		c-1.45-1.55-1.21-2.34-1.14-6.67c0.01-0.57-0.18-1.87,0.55-2.95c0.26-0.38,4.62-2.18,3.56-7.13c-0.88-4.11-3.8-3.75-4.12-5.8
		c-0.04-0.23-0.17-3.57,0.08-4.25c0.45-1.18,3.46-1.11,8.37-1.15c5.15-0.04,5.42,0.69,5.58,1.13c0.03,0.08,0.11,0.08,0.14,12.22
		c0,1.9,0.05,22.51-0.15,23.78c-0.26,1.62-0.76,1.37-9.05,10.19c-2.2,2.35-2.34,2.4-2.35,4.26c-0.01,3.98-0.1,49.41-0.03,49.8
		c0.22,1.23,2.54,2.32,2.59-0.74c0.07-3.82,0.12-34.52,0.12-37.52c0.02-10.18-0.7-11.43,1.19-13.54c0.71-0.79,9.42-9.64,9.76-10.27
		c0.66-1.24,0.5-1.32,0.55-21.63c0.03-9.5,0.05-9.49,0.06-12.26c0.01-1.87-0.26-4.13,0.79-4.41c1.15-0.31,7.71,1.25,13.39,4.01
		c0.1,0.05,0.17,0.12,0.27,0.17c0.16,0.08,1.57,0.76,2.05,0.85c0.23,0.04,0.46,0,0.69,0.04c8.22-1.6,33.84-3.66,38.87-22.36
		c0.62-2.29,3.06-11.38-3.66-29.38c-2.87-7.68-4.16-7.95-3.78-8.73c0.37-0.75,0.63-0.55,1.26-0.01c0.43,0.37,0.24,0.55,4.84,5.18
		c21.92,22.1,19.83,37.47,19.2,42.37c-1.44,11.14-10.24,19.33-10.45,19.55c-3.23,3.25-9.37,8.21-14.91,10.92
		c-7.31,3.58-8.52,4.01-10.84,4.71c-1.43,0.43-1.28,0.73-1.45,0.91C562.08,530.06,561.85,530.18,561.68,530.36L561.68,530.36z
		 M528.05,617.14c0-0.13,0.3-2.34-0.59-2.72c-0.26-0.11-0.6-0.26-3.44,0.71c-0.46,0.16-3.08,1.06-4.86,3.58
		c-0.99,1.41-1.62,3.68-1.57,4.21c0.17,1.76,5.28,1.52,7.2,0.18C527.73,621.04,527.84,618.48,528.05,617.14L528.05,617.14z
		 M491.02,616.45c0.04,0.28,0.1,2.56,1.47,4.45c2.4,3.29,5.04,3.25,7.31,3.34c0.91,0.03,1.03,0.27,1.64-0.41
		c0.85-0.96-1.09-4.94-2.61-6.4c-2.25-2.17-6.78-3.15-6.86-3.14c-0.09,0-0.71,0.03-0.91,0.61
		C491.02,615.01,491.06,615.01,491.02,616.45L491.02,616.45z M536.51,543.59c-0.02,3.16,0.25,3.44-1.95,5.69
		c-7.07,7.25-7.11,7.2-14.19,14.46c-1.96,2.01-3.17,3.06-2.75,4.34c0.43,1.34,1.87,0.03,1.99-0.08
		c0.17-0.15,14.67-14.62,15.38-15.39c0.52-0.56,0.5-0.57,1.03-1.13c3.02-3.16,3.08-3.28,3.1-5.01c0.12-7.18-0.09-17.19,0.28-18.13
		c0.36-0.9,3.29-1.56,4.03-4.89c1.26-5.64-5.8-10.08-9.86-5.4c-2.86,3.29-1.2,7.55,1.07,8.9c1.53,0.91,1.8,0.99,1.81,3.65
		L536.51,543.59L536.51,543.59z M504.22,549.19c-5.06-4.96-11.15-11.24-12.11-12.23c-1.93-1.99-1.91-2.16-1.79-4.94
		c0.08-1.84,0.68-1.91,1.44-2.46c3.77-2.73,3.04-7.09,1.44-8.91c-4.27-4.88-11.32-0.7-10.04,4.95c0.83,3.64,4.08,3.91,4.39,5.73
		c0.41,2.43-0.94,3.5,1.38,5.94c0.31,0.33,15,15.44,16.46,16.57c0.81,0.63,1.47-0.05,1.56-0.14
		C508.09,552.55,505.84,550.78,504.22,549.19L504.22,549.19z M493.71,602.73c0.08,0.46-0.09,0.95-0.02,1.41
		c0.03,0.16,0.27,1.66,1.89,0.84c1.09-0.55,0.82-3.2,0.84-20.28c0.01-7.54-0.19-7.54-0.35-7.85c-0.79-1.56-5.35-5.23-11.04-11.07
		c-2.16-2.22-0.31-3.29-1.68-5.55c-2.82-4.65-9.2-2.18-8.36,2.82c0.49,2.9,3.34,4.24,5.57,4.01c1.29-0.13,1.63-0.52,4.81,2.7
		c7.5,7.6,8.07,7.33,8.29,9.14C493.8,580.11,493.72,585.77,493.71,602.73L493.71,602.73z"/>
	<path class="st6" d="M577.11,471.48c0.58,5.19,1.59,14.02-7.03,20.73c-8.77,6.83-26.2,8.86-27.55,8.52
		c-2.97-0.76-4.15-2.72-15-4.74c-0.14-0.02-1.42-0.26-1.12-1.33c0.01-0.05,5.49-6.94,5.64-7.11c14.16-16.73,30.59-27.09,33.79-29.23
		c0.76-0.51,4.53-2.82,4.93-3.06c1.6-0.98,1.95,0.73,2.91,3.25C576.01,464.66,576.94,470.42,577.11,471.48L577.11,471.48z"/>
	<path class="st6" d="M537.2,643.06c-2.71,12.25-5.85,32.37-5.92,39.04c0,0.12-0.01,1.34-0.06,1.49c-0.18,0.62-1.03,0.66-1.29,0.36
		c-0.29-0.35-0.13-0.46-3.29-4.63c-6.44-8.49-14.27-20.98-17.31-26.97c-3.27-6.45-3.35-6.46-3.25-7.08
		c0.12-0.74,1.39-0.72,1.53-0.71c2.1,0.04,14.99,0.66,24.38-5.44c6.6-4.29,6.04-6.74,6.91-6.82c1.06-0.1,0.75,1.33,0.72,1.45
		c-0.08,0.36-0.19,0.32-1.31,4.36C538.09,638.89,537.29,642.66,537.2,643.06L537.2,643.06z"/>
	<path class="st6" d="M557.2,564.5c0.06-3.07-0.05-4.28,0.49-4.69c0.84-0.62,5.14,0.54,5.53,0.9c0.76,0.7,0.55,0.93-1.02,4.43
		c-2.25,5-2.31,4.97-4.32,10.08c-0.54,1.38-0.52,1.38-0.57,1.5c-3.76,9.47-4.62,9.55-11.79,33.28c-1.63,5.4-1.66,6.83-1.82,7.01
		c-0.12,0.14-1.01,0.21-1.17,0.08c-0.13-0.11-0.4-2.01-0.43-2.19c-0.55-3.94-3.76-11.98,7.35-27.41
		C557.45,576.39,557.05,568.7,557.2,564.5L557.2,564.5z"/>
	<path class="st7" d="M922.54,572.41c-4.14,24.86-13.37,39.23-18.91,47.69c-5.05,7.71-16.31,20.75-30.61,31.03
		c-23.64,16.99-41.99,22.45-54.77,29.57c-0.11,0.06-1.2,0.67-1.46,0.67c-0.93-0.01-0.86-1.32-0.86-1.46
		c0.22-4.54,3.31-26.64,3.71-28.69c1.25-6.42,1.21-6.41,2.34-12.39c0.55-2.91,4.03-21.4,8.57-36.03c0.79-2.53,1.86-6.44,1.9-6.57
		c0.14-0.53,3.74-11.34,4.07-12.33c1-3.01,2.92-8.51,2.94-8.61c0.49-1.73,3.57-9.85,3.89-10.7c1.33-3.51,1.66-3.57,3.31-3.69
		c15.14-1.14,21.56-7.81,23.94-9.63c1.87-1.44,3.61-5.16,0.86-8.34c-9.73-11.27-14.23-12.08-13.64-14.87
		c0.91-4.31,3.21-3.64,6.51-6.26c25.29-20.1,21.04-48.87-1.87-72.13c-0.88-0.89-1.34-0.86-0.93-2.06c0.17-0.49,0.31-0.4,5.78-2.79
		c16.65-7.26,29.55-10.85,42.59-13.34c0.11-0.02,2.97-0.65,3.54-0.3c0.9,0.56-0.07,2.34-0.81,9.96c-2.57,26.31,6.06,54.75,9.89,83
		C924.97,542.27,924.9,556.72,922.54,572.41L922.54,572.41z"/>
	<path class="st7" d="M837.41,530.36c5.68,0.35,10.04,0.39,17.26,4.95c0.38,0.24,5.28,2.9,11.27,9.64c1.33,1.5-0.05,2.21-1.32,3.21
		c-7.05,5.53-15.83,7.65-22.95,7.05c-11.47-0.97-13.42-5.28-13.86-1.48c-0.94,8.17,2.1,16.98-5.54,27.94
		c-6.65,9.54-10.2,15.85-10.82,26.12c-0.43,7.11,5.77,13.73-2.15,22.65c-1.29,1.45-7.32,9.28-26.64,8.44
		c-7.25-0.32-14.65-2.41-18.39-5.27c-0.45-0.34-2.79-2.13-4.79-5.12c-5.26-7.85,0.02-13.06-0.65-20.75
		c-1.38-16.03-12.48-24.45-15.28-32.43c-3.21-9.15-0.9-15.87-1.84-21.69c-0.45-2.8-1.54-1.91-3.09-1.29
		c-2.38,0.95-14.33,6.5-29.77-1.1c-1.68-0.83-6.35-3.77-6.74-4.66c-0.43-0.98,0.06-1.41,3.49-4.71c1.57-1.51,9.17-8.98,20.23-10.98
		c0.95-0.17,3.97-0.05,4.18-0.32c0.11-0.14-0.02-0.98-0.19-1.11c-0.62-0.49-1.38,0.14-9.17-3.57c-3.43-1.63-14.52-6.18-22.74-16.09
		c-7.33-8.83-9.2-20.53-6.77-29.63c4.83-18.14,18.12-28.52,23.22-34.73c0.33-0.4,0.38-0.32,0.73-0.71c0.09-0.1,0.05-0.32,0.17-0.37
		c0.21-0.09,0.96,0.3,0.97,0.45c0.06,0.5-1.39,2.34-2.73,5.66c-10.48,25.84-7.06,37.64,2.9,45.68c3.56,2.87,9.95,6.05,17.16,7.88
		c5.59,1.42,14.44,2.92,16.47,2.39c1.56-0.41,10.16-5.44,23.39-5.76c0.57-0.01,3.95-0.1,7.11,0.32c1.55,0.21,1.55,1.2,1.56,2.22
		c0.01,3.21,0.01,3.61-1.42,4.57c-4.9,3.29-3.13,8.89-0.12,10.53c1.93,1.05,1.55,1.61,1.62,5.09c0.1,4.61-0.24,4.91,1.64,6.77
		c0.26,0.26,2.45,2.42,3.24,3.2c4.45,4.37,4.45,4.88,5.62,4.64c0.39-0.08,1.37-1.03,0.46-2.17c-0.5-0.63-0.74-0.4-7.1-7.2
		c-1.45-1.55-1.21-2.34-1.14-6.67c0.01-0.57-0.18-1.87,0.55-2.95c0.26-0.38,4.62-2.18,3.56-7.13c-0.88-4.11-3.8-3.75-4.12-5.8
		c-0.04-0.23-0.17-3.57,0.08-4.25c0.45-1.18,3.46-1.11,8.37-1.15c5.15-0.04,5.42,0.69,5.58,1.13c0.03,0.08,0.11,0.08,0.14,12.22
		c0,1.9,0.05,22.51-0.15,23.78c-0.26,1.62-0.76,1.37-9.05,10.19c-2.2,2.35-2.34,2.4-2.35,4.26c-0.01,3.98-0.1,49.41-0.03,49.8
		c0.22,1.23,2.54,2.32,2.59-0.74c0.07-3.82,0.12-34.52,0.12-37.52c0.02-10.18-0.7-11.43,1.19-13.54c0.71-0.79,9.42-9.64,9.76-10.27
		c0.66-1.24,0.5-1.32,0.55-21.63c0.03-9.5,0.05-9.49,0.06-12.26c0.01-1.87-0.26-4.13,0.79-4.41c1.15-0.31,7.71,1.25,13.39,4.01
		c0.1,0.05,0.17,0.12,0.27,0.17c0.16,0.08,1.57,0.76,2.05,0.85c0.23,0.04,0.46,0,0.69,0.04c8.22-1.6,33.84-3.66,38.87-22.36
		c0.62-2.29,3.06-11.38-3.66-29.38c-2.87-7.68-4.16-7.95-3.78-8.73c0.37-0.75,0.63-0.55,1.26-0.01c0.43,0.37,0.24,0.55,4.84,5.18
		c21.92,22.1,19.83,37.47,19.2,42.37c-1.44,11.14-10.24,19.33-10.45,19.55c-3.23,3.25-9.37,8.21-14.91,10.92
		c-7.31,3.58-8.52,4.01-10.84,4.71c-1.43,0.43-1.28,0.73-1.45,0.91C837.81,530.06,837.58,530.18,837.41,530.36L837.41,530.36z
		 M803.78,617.14c0-0.13,0.3-2.34-0.59-2.72c-0.26-0.11-0.6-0.26-3.44,0.71c-0.46,0.16-3.08,1.06-4.86,3.58
		c-0.99,1.41-1.62,3.68-1.57,4.21c0.17,1.76,5.28,1.52,7.2,0.18C803.46,621.04,803.57,618.48,803.78,617.14L803.78,617.14z
		 M766.75,616.45c0.04,0.28,0.1,2.56,1.47,4.45c2.4,3.29,5.04,3.25,7.31,3.34c0.91,0.03,1.03,0.27,1.64-0.41
		c0.85-0.96-1.09-4.94-2.61-6.4c-2.25-2.17-6.78-3.15-6.86-3.14c-0.09,0-0.71,0.03-0.91,0.61
		C766.75,615.01,766.79,615.01,766.75,616.45L766.75,616.45z M812.25,543.59c-0.02,3.16,0.25,3.44-1.95,5.69
		c-7.07,7.25-7.11,7.2-14.19,14.46c-1.96,2.01-3.17,3.06-2.75,4.34c0.43,1.34,1.87,0.03,1.99-0.08
		c0.17-0.15,14.67-14.62,15.38-15.39c0.52-0.56,0.5-0.57,1.03-1.13c3.02-3.16,3.08-3.28,3.1-5.01c0.12-7.18-0.09-17.19,0.28-18.13
		c0.36-0.9,3.29-1.56,4.03-4.89c1.26-5.64-5.8-10.08-9.86-5.4c-2.86,3.29-1.2,7.55,1.07,8.9c1.53,0.91,1.8,0.99,1.81,3.65
		L812.25,543.59L812.25,543.59z M779.95,549.19c-5.06-4.96-11.15-11.24-12.11-12.23c-1.93-1.99-1.91-2.16-1.79-4.94
		c0.08-1.84,0.68-1.91,1.44-2.46c3.77-2.73,3.04-7.09,1.44-8.91c-4.27-4.88-11.32-0.7-10.04,4.95c0.83,3.64,4.08,3.91,4.39,5.73
		c0.41,2.43-0.94,3.5,1.38,5.94c0.31,0.33,15,15.44,16.46,16.57c0.81,0.63,1.47-0.05,1.56-0.14
		C783.82,552.55,781.58,550.78,779.95,549.19L779.95,549.19z M769.44,602.73c0.08,0.46-0.09,0.95-0.02,1.41
		c0.03,0.16,0.27,1.66,1.89,0.84c1.09-0.55,0.82-3.2,0.84-20.28c0.01-7.54-0.19-7.54-0.35-7.85c-0.79-1.56-5.35-5.23-11.04-11.07
		c-2.16-2.22-0.31-3.29-1.68-5.55c-2.82-4.65-9.2-2.18-8.36,2.82c0.49,2.9,3.34,4.24,5.57,4.01c1.29-0.13,1.63-0.52,4.81,2.7
		c7.5,7.6,8.08,7.33,8.29,9.14C769.54,580.11,769.46,585.77,769.44,602.73L769.44,602.73z"/>
	<path class="st7" d="M852.84,471.48c0.58,5.19,1.59,14.02-7.03,20.73c-8.77,6.83-26.2,8.86-27.55,8.52
		c-2.97-0.76-4.15-2.72-15-4.74c-0.14-0.02-1.42-0.26-1.12-1.33c0.01-0.05,5.49-6.94,5.64-7.11c14.16-16.73,30.59-27.09,33.79-29.23
		c0.76-0.51,4.53-2.82,4.93-3.06c1.6-0.98,1.95,0.73,2.91,3.25C851.74,464.66,852.67,470.42,852.84,471.48L852.84,471.48z"/>
	<path class="st7" d="M812.93,643.06c-2.71,12.25-5.85,32.37-5.92,39.04c0,0.12-0.01,1.34-0.06,1.49c-0.18,0.62-1.03,0.66-1.29,0.36
		c-0.29-0.35-0.13-0.46-3.29-4.63c-6.44-8.49-14.27-20.98-17.31-26.97c-3.27-6.45-3.35-6.46-3.25-7.08
		c0.12-0.74,1.39-0.72,1.53-0.71c2.1,0.04,14.99,0.66,24.38-5.44c6.6-4.29,6.04-6.74,6.91-6.82c1.06-0.1,0.75,1.33,0.72,1.45
		c-0.08,0.36-0.19,0.32-1.31,4.36C813.83,638.89,813.02,642.66,812.93,643.06L812.93,643.06z"/>
	<path class="st7" d="M832.93,564.5c0.06-3.07-0.05-4.28,0.49-4.69c0.84-0.62,5.14,0.54,5.53,0.9c0.76,0.7,0.55,0.93-1.02,4.43
		c-2.25,5-2.31,4.97-4.32,10.08c-0.54,1.38-0.52,1.38-0.57,1.5c-3.76,9.47-4.62,9.55-11.79,33.28c-1.63,5.4-1.66,6.83-1.82,7.01
		c-0.12,0.14-1.01,0.21-1.17,0.08c-0.13-0.11-0.4-2.01-0.43-2.19c-0.55-3.94-3.76-11.98,7.35-27.41
		C833.18,576.39,832.78,568.7,832.93,564.5L832.93,564.5z"/>
	<g>
		
			<rect x="9.33" y="188.5" transform="matrix(6.123234e-17 -1 1 6.123234e-17 -143.4186 264.5814)" class="st8" width="102.5" height="31"/>
		<text transform="matrix(6.123234e-17 -1 1 6.123234e-17 68.5531 249.9238)" class="st9 st10 st11">Logotipo</text>
	</g>
	<g>
		
			<rect x="1.46" y="527.65" transform="matrix(6.123234e-17 -1 1 6.123234e-17 -483.0397 603.2694)" class="st8" width="117.31" height="31"/>
		<text transform="matrix(6.123234e-17 -1 1 6.123234e-17 68.0865 596.4834)" class="st9 st10 st11">Imagotipo</text>
	</g>
	<g>
		
			<rect x="1.77" y="850.63" transform="matrix(6.123234e-17 -1 1 6.123234e-17 -805.7056 926.5464)" class="st8" width="117.31" height="31"/>
		<text transform="matrix(6.123234e-17 -1 1 6.123234e-17 68.3921 919.4551)" class="st9 st10 st11">Tipografía</text>
	</g>
	<text transform="matrix(1 0 0 1 166.1126 919.0811)" class="st12 st13">Glonto</text>
	<rect x="645.33" y="820.05" class="st14" width="279" height="124.45"/>
	<text transform="matrix(1 0 0 1 645.3314 839.6543)"><tspan x="0" y="0" class="st12 st15">Aa,</tspan><tspan x="34.09" y="0" class="st12 st15 st16"> </tspan><tspan x="42.85" y="0" class="st12 st15">Bb,</tspan><tspan x="75.86" y="0" class="st12 st15 st16"> </tspan><tspan x="84.62" y="0" class="st12 st15">Cc,</tspan><tspan x="118.77" y="0" class="st12 st15 st16"> </tspan><tspan x="127.54" y="0" class="st12 st15">Dd,</tspan><tspan x="161.67" y="0" class="st12 st15 st16"> </tspan><tspan x="170.44" y="0" class="st12 st15">Ee,</tspan><tspan x="201.95" y="0" class="st12 st15 st16"> </tspan><tspan x="210.71" y="0" class="st12 st15">Ff,</tspan><tspan x="235.78" y="0" class="st12 st15 st16"> </tspan><tspan x="244.55" y="0" class="st12 st15">Gg, </tspan><tspan x="0" y="24" class="st12 st15">Hh,</tspan><tspan x="31.85" y="24" class="st12 st15 st17"> </tspan><tspan x="39.23" y="24" class="st12 st15">Ii,</tspan><tspan x="50.96" y="24" class="st12 st15 st17"> </tspan><tspan x="58.33" y="24" class="st12 st15">Jj,</tspan><tspan x="84.27" y="24" class="st12 st15 st17"> </tspan><tspan x="91.64" y="24" class="st12 st15">Kk,</tspan><tspan x="123.47" y="24" class="st12 st15 st17"> </tspan><tspan x="130.85" y="24" class="st12 st15">Ll,</tspan><tspan x="150.23" y="24" class="st12 st15 st17"> </tspan><tspan x="157.61" y="24" class="st12 st15">Mm,</tspan><tspan x="200.59" y="24" class="st12 st15 st17"> </tspan><tspan x="207.97" y="24" class="st12 st15">Nn,</tspan><tspan x="239.8" y="24" class="st12 st15 st17"> </tspan><tspan x="247.17" y="24" class="st12 st15">Ññ, </tspan><tspan x="0" y="48" class="st12 st15">Oo,</tspan><tspan x="35.44" y="48" class="st12 st15 st18"> </tspan><tspan x="45.32" y="48" class="st12 st15">Pp,</tspan><tspan x="78.18" y="48" class="st12 st15 st18"> </tspan><tspan x="88.06" y="48" class="st12 st15">Qq,</tspan><tspan x="123.31" y="48" class="st12 st15 st18"> </tspan><tspan x="133.19" y="48" class="st12 st15">Rr,</tspan><tspan x="160.19" y="48" class="st12 st15 st18"> </tspan><tspan x="170.06" y="48" class="st12 st15">Ss,</tspan><tspan x="204.22" y="48" class="st12 st15 st18"> </tspan><tspan x="214.09" y="48" class="st12 st15">Tt,</tspan><tspan x="237.71" y="48" class="st12 st15 st18"> </tspan><tspan x="247.58" y="48" class="st12 st15">Uu, </tspan><tspan x="0" y="72" class="st12 st15">Vv, Ww, Xx, Yy, Zz.</tspan></text>
	<g>
		
			<rect x="1760.17" y="202.72" transform="matrix(6.123234e-17 -1 1 6.123234e-17 1641.6681 2078.1021)" class="st8" width="199.43" height="31"/>
		<text transform="matrix(6.123234e-17 -1 1 6.123234e-17 1867.8568 312.6074)" class="st9 st10 st11">Paleta de colores</text>
	</g>
	<text transform="matrix(1 0 0 1 1074.0638 404.25)" class="st12 st15">F18940</text>
	<text transform="matrix(1 0 0 1 1074.5811 614.107)" class="st4 st12 st15">382454</text>
	<text transform="matrix(1 0 0 1 1075.5807 803.1068)" class="st4 st12 st15">687049</text>
	<text transform="matrix(6.123234e-17 -1 1 6.123234e-17 1790.8085 803.0391)" class="st12 st15">EFC700</text>
	<text transform="matrix(1 0 0 1 1074.5813 1002.3301)" class="st12 st15">EDEDED</text>
	<text transform="matrix(1 0 0 1 1457.5808 1002.3298)" class="st9 st12 st15">000000</text>
</g>
</svg>
